<?xml version="1.0" standalone="no"?>
<!DOCTYPE svg PUBLIC "-//W3C//DTD SVG 20010904//EN"
 "http://www.w3.org/TR/2001/REC-SVG-20010904/DTD/svg10.dtd">
<svg version="1.0" xmlns="http://www.w3.org/2000/svg"
 width="200.000000pt" height="200.000000pt" viewBox="0 0 200.000000 200.000000"
 preserveAspectRatio="xMidYMid meet">
<metadata>
Created by potrace 1.14, written by Peter Selinger 2001-2017
</metadata>
<g transform="translate(0.000000,200.000000) scale(0.100000,-0.100000)"
fill="#000000" stroke="none">
<path d="M440 1379 l-54 -32 -71 17 c-88 20 -115 21 -115 1 0 -9 7 -18 15 -21
8 -4 12 -10 9 -15 -11 -18 17 -39 42 -33 32 8 31 -9 -2 -31 -23 -15 -32 -16
-65 -5 -20 7 -45 10 -55 6 -14 -6 -7 -14 37 -46 30 -22 72 -49 94 -60 35 -18
40 -18 43 -4 2 8 -4 24 -13 34 -15 17 -14 19 14 40 28 19 58 20 46 0 -7 -11
22 -33 37 -28 7 3 27 -1 44 -8 50 -21 56 -2 22 62 -17 30 -29 56 -27 57 89 57
106 78 73 91 -9 3 -16 6 -17 6 -1 0 -27 -14 -57 -31z m-15 -108 c30 -52 30
-50 5 -44 -11 3 -20 8 -20 12 0 4 -13 15 -30 24 -29 18 -30 18 -85 -17 -30
-20 -55 -32 -55 -28 0 4 23 20 52 36 l51 29 -28 24 c-16 14 -34 22 -43 18 -9
-3 -13 -3 -9 1 4 4 2 13 -3 19 -7 8 18 5 65 -9 71 -20 77 -24 100 -65z m35 85
c0 -2 -12 -11 -27 -20 l-28 -17 24 20 c23 21 31 25 31 17z"/>
<path d="M135 1150 c-16 -4 -47 -11 -67 -14 -48 -9 -48 -20 1 -34 l38 -12 -21
-43 c-31 -61 -28 -156 6 -222 71 -137 259 -235 477 -249 34 -2 61 0 61 4 0 12
-28 20 -66 20 -117 0 -303 73 -379 148 -81 81 -109 194 -70 289 l16 41 45 -15
c25 -8 48 -12 52 -9 8 9 -39 99 -53 102 -5 1 -23 -2 -40 -6z m42 -43 l11 -24
-44 16 c-34 12 -40 17 -26 23 32 12 49 8 59 -15z"/>
<path d="M470 1125 c-115 -32 -199 -98 -219 -173 -25 -94 26 -174 151 -232
151 -71 363 -42 467 62 80 80 80 175 0 256 -84 86 -262 124 -399 87z m-11 -57
c-43 -42 -45 -43 -71 -28 l-27 15 36 18 c19 10 47 21 62 24 14 2 28 6 30 9 2
2 7 4 9 4 3 0 -15 -19 -39 -42z m111 -18 c0 -57 -1 -60 -22 -56 -13 3 -34 5
-48 5 -14 1 -32 6 -40 11 -12 8 -10 14 14 39 22 23 78 59 94 61 1 0 2 -27 2
-60z m82 37 c20 -12 46 -34 57 -49 l21 -26 -27 -6 c-16 -3 -44 -7 -64 -10
l-35 -5 -2 59 c0 33 2 60 6 60 4 0 24 -10 44 -23z m111 -9 l48 -22 -27 -14
c-26 -14 -29 -13 -48 9 -12 14 -32 33 -46 43 l-25 18 25 -7 c14 -3 47 -16 73
-27z m-369 -108 c-9 -50 -10 -50 -66 -50 l-50 0 6 32 c3 18 18 44 32 59 25 26
27 27 55 11 26 -15 28 -21 23 -52z m472 27 c12 -17 25 -42 29 -54 6 -22 4 -23
-48 -23 l-55 0 -10 43 c-6 23 -8 43 -3 45 4 1 16 9 27 16 23 18 34 13 60 -27z
m-351 -22 c11 -2 28 -4 38 -4 11 -1 17 -9 17 -26 0 -24 -2 -25 -75 -25 -67 0
-75 2 -75 19 0 41 11 52 44 46 17 -4 40 -8 51 -10z m230 5 c4 -6 8 -22 11 -35
4 -25 4 -25 -74 -25 -76 0 -78 1 -80 25 -1 21 3 25 26 26 35 1 85 9 91 15 7 7
20 4 26 -6z m-362 -87 c2 -5 7 -24 11 -43 5 -31 3 -37 -23 -51 -33 -19 -41
-16 -70 31 -34 57 -29 70 28 70 28 0 52 -3 54 -7z m187 -18 c0 -18 -6 -25 -20
-26 -11 -1 -23 -2 -27 -3 -90 -21 -103 -17 -103 32 0 21 4 22 75 22 73 0 75
-1 75 -25z m186 0 c-7 -38 -16 -47 -41 -41 -12 3 -40 8 -61 12 -49 8 -53 10
-51 34 1 18 9 20 79 20 78 0 78 0 74 -25z m144 13 c0 -15 -35 -74 -55 -95 -12
-12 -18 -11 -42 4 -15 9 -29 17 -30 18 -1 0 3 20 9 43 l10 42 54 0 c37 0 54
-4 54 -12z m-330 -118 c0 -33 -2 -60 -5 -60 -29 0 -125 83 -112 96 4 4 24 10
44 14 75 15 73 16 73 -50z m122 45 c37 -7 37 -7 21 -31 -13 -21 -89 -74 -105
-74 -3 0 -5 27 -5 60 1 68 -7 64 89 45z m-233 -65 c51 -47 44 -49 -39 -13 -60
26 -61 27 -38 39 31 17 27 19 77 -26z m330 26 c23 -13 23 -13 -20 -33 -24 -11
-55 -24 -69 -28 -22 -7 -20 -3 15 34 45 46 42 45 74 27z"/>
<path d="M1228 992 c-40 -3 -56 -32 -18 -32 18 0 20 -7 20 -55 0 -46 3 -55 18
-55 15 0 17 8 16 55 -1 30 2 56 7 56 5 1 15 2 21 3 7 0 14 8 16 16 3 16 -11
18 -80 12z"/>
<path d="M1042 923 c2 -52 6 -68 18 -68 12 0 15 14 16 68 0 59 -2 67 -19 67
-16 0 -18 -7 -15 -67z"/>
<path d="M1440 985 c0 -2 -11 -34 -25 -70 -23 -62 -23 -65 -5 -65 10 0 20 8
22 17 4 23 46 24 54 1 3 -10 12 -18 21 -18 17 0 12 33 -13 84 -8 16 -14 35
-14 43 0 7 -9 13 -20 13 -11 0 -20 -2 -20 -5z m30 -66 c0 -5 -4 -9 -10 -9 -5
0 -10 7 -10 16 0 8 5 12 10 9 6 -3 10 -10 10 -16z"/>
<path d="M1648 925 c-17 -43 -23 -67 -16 -71 6 -4 16 0 22 8 19 25 45 29 56 8
10 -19 40 -28 40 -12 0 4 -10 35 -22 70 -30 82 -47 81 -80 -3z m52 -6 c0 -5
-7 -9 -15 -9 -9 0 -12 6 -9 15 6 15 24 11 24 -6z"/>
<path d="M1864 965 c-7 -30 7 -51 41 -59 14 -4 25 -11 25 -16 0 -13 -26 -13
-50 0 -13 7 -19 6 -24 -5 -12 -31 70 -48 97 -20 23 22 14 48 -22 67 -48 24
-50 30 -11 26 26 -2 35 1 35 12 0 10 -13 16 -42 18 -38 3 -43 1 -49 -23z"/>
<path d="M967 686 c-11 -9 -14 -17 -8 -21 13 -7 51 12 51 25 0 14 -22 12 -43
-4z"/>
<path d="M878 643 c-36 -14 -51 -33 -28 -33 24 0 81 30 75 40 -3 5 -7 10 -8 9
-1 0 -19 -7 -39 -16z"/>
<path d="M775 612 c-36 -7 -41 -22 -8 -22 18 0 34 4 38 9 7 13 -6 18 -30 13z"/>
</g>
</svg>
